<svg width="1920" height="973" viewBox="0 0 1920 973" fill="none" xmlns="http://www.w3.org/2000/svg">
<g opacity="0.1">
<mask id="mask0_14_14382" style="mask-type:luminance" maskUnits="userSpaceOnUse" x="-190" y="0" width="2111" height="1250">
<path d="M-189.472 1249.32L1920 1249.32L1920 0.00134277L-189.472 0.00115836L-189.472 1249.32Z" fill="white"/>
</mask>
<g mask="url(#mask0_14_14382)">
<path d="M-62.3192 436.596C-62.3192 436.596 373.261 -10.9597 900.18 559.371C1427.1 1129.7 1685.51 646.656 1819.13 511.702C1952.75 376.748 2152.25 485.182 2286.41 876.229" stroke="white" stroke-width="2.99358" stroke-miterlimit="10"/>
<path d="M-59.9307 386.503C-59.9307 386.503 392.279 -2.84049 884.818 578.884C1377.36 1160.61 1624.6 692.099 1759.25 530.167C1893.89 368.235 2121.48 546.34 2243.54 973.401" stroke="white" stroke-width="2.99358" stroke-miterlimit="10"/>
<path d="M-57.5403 336.477C-57.5403 336.477 411.298 5.27885 869.457 598.397C1327.62 1191.51 1563.69 737.542 1699.41 548.632C1835.08 359.722 2090.81 607.499 2200.68 1070.57" stroke="white" stroke-width="2.99358" stroke-miterlimit="10"/>
<path d="M-55.1983 286.385C-55.1983 286.385 430.27 13.3987 854.048 617.91C1277.83 1222.42 1502.79 782.985 1639.48 567.032C1776.17 351.145 2060.04 668.592 2157.72 1167.61" stroke="white" stroke-width="2.99358" stroke-miterlimit="10"/>
<path d="M-52.81 236.293C-52.81 236.293 449.287 21.5182 838.686 637.423C1228.08 1253.33 1441.88 828.428 1579.64 585.497C1717.36 342.632 2029.36 729.75 2114.85 1264.79" stroke="white" stroke-width="2.99358" stroke-miterlimit="10"/>
<path d="M-50.4204 186.267C-50.4204 186.267 468.307 29.6389 823.325 656.937C1178.29 1284.24 1381.02 873.873 1519.76 603.964C1658.5 334.121 1998.64 790.909 2071.94 1361.96" stroke="white" stroke-width="2.99358" stroke-miterlimit="10"/>
<path d="M-48.0796 136.175C-48.0796 136.175 487.325 37.7583 807.914 676.45C1128.5 1315.14 1320.06 919.25 1459.87 622.429C1599.63 325.608 1967.92 852.068 2029.02 1459.13" stroke="white" stroke-width="2.99358" stroke-miterlimit="10"/>
<path d="M-45.6909 86.0826C-45.6909 86.0826 506.343 45.8778 792.552 695.963C1078.76 1346.05 1259.2 964.693 1399.98 640.895C1540.77 317.096 1937.19 913.226 1986.11 1556.24" stroke="white" stroke-width="2.99358" stroke-miterlimit="10"/>
<path d="M-43.3486 36.0555C-43.3486 36.0555 525.315 53.997 777.144 715.476C1028.97 1376.95 1198.24 1010.14 1340.1 659.36C1481.91 308.583 1906.42 974.384 1943.19 1653.41" stroke="white" stroke-width="2.99358" stroke-miterlimit="10"/>
<path d="M-40.9595 -14.0372C-40.9595 -14.0372 544.333 62.116 761.782 734.989C979.23 1407.86 1137.38 1055.58 1280.22 677.825C1423.05 300.005 1875.7 1035.54 1900.28 1750.58" stroke="white" stroke-width="2.99358" stroke-miterlimit="10"/>
</g>
</g>
</svg>
