<svg width="1920" height="973" viewBox="0 0 1920 973" fill="none" xmlns="http://www.w3.org/2000/svg">
<g opacity="0.1">
<mask id="mask0_879_84947" style="mask-type:luminance" maskUnits="userSpaceOnUse" x="-190" y="0" width="2110" height="1250">
<path d="M-189.474 1249.32L1920 1249.32L1920 0.000854492L-189.474 0.000670076L-189.474 1249.32Z" fill="white"/>
</mask>
<g mask="url(#mask0_879_84947)">
<path d="M-62.3229 436.594C-62.3229 436.594 373.257 -10.9622 900.177 559.369C1427.1 1129.7 1685.51 646.654 1819.13 511.699C1952.75 376.745 2152.25 485.18 2286.41 876.227" stroke="white" stroke-width="2.99358" stroke-miterlimit="10"/>
<path d="M-59.9354 386.501C-59.9354 386.501 392.274 -2.84293 884.814 578.881C1377.35 1160.61 1624.6 692.096 1759.24 530.164C1893.89 368.232 2121.48 546.338 2243.54 973.398" stroke="white" stroke-width="2.99358" stroke-miterlimit="10"/>
<path d="M-57.5472 336.474C-57.5472 336.474 411.292 5.27592 869.45 598.394C1327.61 1191.51 1563.69 737.539 1699.4 548.629C1835.07 359.719 2090.8 607.496 2200.67 1070.57" stroke="white" stroke-width="2.99358" stroke-miterlimit="10"/>
<path d="M-55.2037 286.383C-55.2037 286.383 430.264 13.3972 854.043 617.909C1277.82 1222.42 1502.78 782.984 1639.47 567.031C1776.16 351.143 2060.03 668.59 2157.71 1167.61" stroke="white" stroke-width="2.99358" stroke-miterlimit="10"/>
<path d="M-52.8166 236.291C-52.8166 236.291 449.281 21.5162 838.679 637.421C1228.08 1253.33 1441.87 828.426 1579.63 585.496C1717.35 342.63 2029.36 729.748 2114.84 1264.79" stroke="white" stroke-width="2.99358" stroke-miterlimit="10"/>
<path d="M-50.4267 186.268C-50.4267 186.268 468.3 29.6394 823.319 656.938C1178.29 1284.24 1381.01 873.873 1519.75 603.965C1658.49 334.121 1998.63 790.91 2071.93 1361.96" stroke="white" stroke-width="2.99358" stroke-miterlimit="10"/>
<path d="M-48.0852 136.175C-48.0852 136.175 487.319 37.7583 807.909 676.45C1128.5 1315.14 1320.05 919.25 1459.86 622.429C1599.63 325.608 1967.91 852.068 2029.02 1459.13" stroke="white" stroke-width="2.99358" stroke-miterlimit="10"/>
<path d="M-45.6955 86.0811C-45.6955 86.0811 506.339 45.8764 792.548 695.962C1078.76 1346.05 1259.19 964.692 1399.98 640.893C1540.77 317.095 1937.19 913.225 1986.1 1556.24" stroke="white" stroke-width="2.99358" stroke-miterlimit="10"/>
<path d="M-43.3544 36.054C-43.3544 36.054 525.309 53.9956 777.138 715.475C1028.97 1376.95 1198.23 1010.13 1340.1 659.358C1481.91 308.582 1906.42 974.383 1943.19 1653.41" stroke="white" stroke-width="2.99358" stroke-miterlimit="10"/>
<path d="M-40.9646 -14.0387C-40.9646 -14.0387 544.328 62.1145 761.777 734.987C979.225 1407.86 1137.37 1055.58 1280.21 677.823C1423.05 300.003 1875.7 1035.54 1900.27 1750.58" stroke="white" stroke-width="2.99358" stroke-miterlimit="10"/>
</g>
</g>
</svg>
