<svg width="1920" height="973" viewBox="0 0 1920 973" fill="none" xmlns="http://www.w3.org/2000/svg">
<g opacity="0.1">
<mask id="mask0_12_13333" style="mask-type:luminance" maskUnits="userSpaceOnUse" x="-190" y="-1" width="2111" height="1251">
<path d="M-189.472 1249.32L1920 1249.32L1920 -0.00012207L-189.472 -0.000306486L-189.472 1249.32Z" fill="white"/>
</mask>
<g mask="url(#mask0_12_13333)">
<path d="M-62.319 436.595C-62.319 436.595 373.261 -10.9612 900.181 559.37C1427.1 1129.7 1685.51 646.655 1819.13 511.7C1952.75 376.746 2152.25 485.181 2286.41 876.228" stroke="white" stroke-width="2.99358" stroke-miterlimit="10"/>
<path d="M-59.9305 386.502C-59.9305 386.502 392.279 -2.84195 884.818 578.882C1377.36 1160.61 1624.6 692.097 1759.25 530.165C1893.89 368.233 2121.48 546.339 2243.54 973.399" stroke="white" stroke-width="2.99358" stroke-miterlimit="10"/>
<path d="M-57.5401 336.475C-57.5401 336.475 411.299 5.27738 869.458 598.395C1327.62 1191.51 1563.69 737.54 1699.41 548.631C1835.08 359.721 2090.81 607.497 2200.68 1070.57" stroke="white" stroke-width="2.99358" stroke-miterlimit="10"/>
<path d="M-55.1981 286.383C-55.1981 286.383 430.27 13.3972 854.049 617.909C1277.83 1222.42 1502.79 782.984 1639.48 567.031C1776.17 351.143 2060.04 668.59 2157.72 1167.61" stroke="white" stroke-width="2.99358" stroke-miterlimit="10"/>
<path d="M-52.8098 236.291C-52.8098 236.291 449.288 21.5167 838.686 637.422C1228.08 1253.33 1441.88 828.427 1579.64 585.496C1717.36 342.631 2029.36 729.749 2114.85 1264.79" stroke="white" stroke-width="2.99358" stroke-miterlimit="10"/>
<path d="M-50.4201 186.266C-50.4201 186.266 468.307 29.6374 823.325 656.936C1178.29 1284.23 1381.02 873.871 1519.76 603.963C1658.5 334.12 1998.64 790.908 2071.94 1361.96" stroke="white" stroke-width="2.99358" stroke-miterlimit="10"/>
<path d="M-48.0793 136.173C-48.0793 136.173 487.325 37.7568 807.915 676.449C1128.5 1315.14 1320.06 919.249 1459.87 622.428C1599.63 325.607 1967.92 852.066 2029.02 1459.13" stroke="white" stroke-width="2.99358" stroke-miterlimit="10"/>
<path d="M-45.6904 86.0811C-45.6904 86.0811 506.344 45.8764 792.553 695.962C1078.76 1346.05 1259.2 964.692 1399.99 640.893C1540.77 317.095 1937.19 913.225 1986.11 1556.24" stroke="white" stroke-width="2.99358" stroke-miterlimit="10"/>
<path d="M-43.3483 36.054C-43.3483 36.054 525.315 53.9956 777.144 715.475C1028.97 1376.95 1198.24 1010.13 1340.1 659.358C1481.91 308.582 1906.42 974.383 1943.19 1653.41" stroke="white" stroke-width="2.99358" stroke-miterlimit="10"/>
<path d="M-40.9592 -14.0387C-40.9592 -14.0387 544.333 62.1145 761.782 734.987C979.231 1407.86 1137.38 1055.58 1280.22 677.823C1423.05 300.003 1875.7 1035.54 1900.28 1750.58" stroke="white" stroke-width="2.99358" stroke-miterlimit="10"/>
</g>
</g>
</svg>
