<svg width="1920" height="989" viewBox="0 0 1920 989" fill="none" xmlns="http://www.w3.org/2000/svg">
<path d="M-62.3229 452.597C-62.3229 452.597 373.257 5.04077 900.177 575.372C1427.1 1145.7 1685.51 662.657 1819.13 527.702C1952.75 392.748 2152.25 501.183 2286.41 892.229" stroke="#B50D74" stroke-width="2.99358" stroke-miterlimit="10"/>
<path d="M-59.9354 402.504C-59.9354 402.504 392.274 13.16 884.814 594.884C1377.35 1176.61 1624.6 708.099 1759.24 546.167C1893.89 384.235 2121.48 562.341 2243.54 989.401" stroke="#B50D74" stroke-width="2.99358" stroke-miterlimit="10"/>
<path d="M-57.5433 352.477C-57.5433 352.477 411.295 21.2788 869.454 614.397C1327.61 1207.51 1563.69 753.542 1699.41 564.632C1835.08 375.722 2090.81 623.499 2200.68 1086.57" stroke="#B50D74" stroke-width="2.99358" stroke-miterlimit="10"/>
<path d="M-55.2037 302.385C-55.2037 302.385 430.264 29.3992 854.043 633.911C1277.82 1238.42 1502.78 798.986 1639.47 583.033C1776.16 367.145 2060.03 684.592 2157.71 1183.62" stroke="#B50D74" stroke-width="2.99358" stroke-miterlimit="10"/>
<path d="M-52.8127 252.293C-52.8127 252.293 449.285 37.5182 838.683 653.423C1228.08 1269.33 1441.87 844.428 1579.64 601.497C1717.35 358.632 2029.36 745.75 2114.85 1280.79" stroke="#B50D74" stroke-width="2.99358" stroke-miterlimit="10"/>
<path d="M-50.4228 202.268C-50.4228 202.268 468.304 45.6394 823.322 672.938C1178.29 1300.24 1381.01 889.873 1519.75 619.965C1658.49 350.121 1998.64 806.91 2071.93 1377.96" stroke="#B50D74" stroke-width="2.99358" stroke-miterlimit="10"/>
<path d="M-48.0852 152.175C-48.0852 152.175 487.319 53.7583 807.909 692.45C1128.5 1331.14 1320.05 935.25 1459.86 638.429C1599.63 341.608 1967.91 868.068 2029.02 1475.13" stroke="#B50D74" stroke-width="2.99358" stroke-miterlimit="10"/>
<path d="M-45.6955 102.083C-45.6955 102.083 506.339 61.8783 792.548 711.964C1078.76 1362.05 1259.19 980.694 1399.98 656.895C1540.77 333.097 1937.19 929.227 1986.1 1572.24" stroke="#B50D74" stroke-width="2.99358" stroke-miterlimit="10"/>
<path d="M-43.3505 52.056C-43.3505 52.056 525.313 69.9975 777.142 731.476C1028.97 1392.96 1198.24 1026.14 1340.1 675.36C1481.91 324.584 1906.42 990.385 1943.19 1669.41" stroke="#B50D74" stroke-width="2.99358" stroke-miterlimit="10"/>
<path d="M-40.9646 1.96327C-40.9646 1.96327 544.328 78.1164 761.777 750.989C979.225 1423.86 1137.37 1071.58 1280.21 693.825C1423.05 316.005 1875.7 1051.54 1900.27 1766.58" stroke="#B50D74" stroke-width="2.99358" stroke-miterlimit="10"/>
</svg>
