<svg width="1833" height="1080" viewBox="0 0 1833 1080" fill="none" xmlns="http://www.w3.org/2000/svg">
<mask id="mask0_817_186949" style="mask-type:luminance" maskUnits="userSpaceOnUse" x="-327" y="-104" width="2160" height="1268">
<path d="M-327 1163.4L1833 1163.4L1833 -104L-327 -104L-327 1163.4Z" fill="white"/>
<path d="M-326.002 1162.4L-326.002 -103.002L1832 -103.002L1832 1162.4L-326.002 1162.4Z" stroke="white" stroke-width="1.99572"/>
</mask>
<g mask="url(#mask0_817_186949)">
<path d="M-196.802 338.913C-196.802 338.913 249.211 -115.119 788.751 463.465C1328.29 1042.05 1592.89 552.013 1729.71 415.106C1866.53 278.199 2070.81 388.203 2208.18 784.908" stroke="white" stroke-opacity="0.15" stroke-width="2.99358" stroke-miterlimit="10"/>
<path d="M-194.358 288.096C-194.358 288.096 268.683 -106.882 773.02 483.26C1277.36 1073.4 1530.52 598.114 1668.39 433.838C1806.26 269.563 2039.3 450.246 2164.29 883.486" stroke="white" stroke-opacity="0.15" stroke-width="2.99358" stroke-miterlimit="10"/>
<path d="M-191.909 237.345C-191.909 237.345 288.159 -98.6455 757.292 503.055C1226.42 1104.76 1468.16 644.214 1607.12 452.57C1746.04 260.927 2007.9 512.289 2120.4 982.064" stroke="white" stroke-opacity="0.15" stroke-width="2.99358" stroke-miterlimit="10"/>
<path d="M-189.512 186.528C-189.512 186.528 307.584 -90.4086 741.513 522.85C1175.44 1136.11 1405.79 690.314 1545.75 471.236C1685.72 252.225 1976.39 574.265 2076.41 1080.51" stroke="white" stroke-opacity="0.15" stroke-width="2.99358" stroke-miterlimit="10"/>
<path d="M-187.064 135.71C-187.064 135.71 327.059 -82.172 725.785 542.645C1124.51 1167.46 1343.42 736.415 1484.49 489.968C1625.5 243.589 1944.98 636.308 2032.52 1179.09" stroke="white" stroke-opacity="0.15" stroke-width="2.99358" stroke-miterlimit="10"/>
<path d="M-184.616 84.9615C-184.616 84.9615 346.535 -73.9333 710.057 562.443C1073.53 1198.82 1281.11 782.517 1423.17 508.703C1565.23 234.955 1913.52 698.353 1988.57 1277.67" stroke="white" stroke-opacity="0.15" stroke-width="2.99358" stroke-miterlimit="10"/>
<path d="M-182.222 34.1438C-182.222 34.1438 366.006 -65.6967 694.274 582.238C1022.54 1230.17 1218.68 828.551 1361.85 527.435C1504.96 226.319 1882.06 760.396 1944.63 1376.25" stroke="white" stroke-opacity="0.15" stroke-width="2.99358" stroke-miterlimit="10"/>
<path d="M-179.775 -16.6735C-179.775 -16.6735 385.481 -57.4601 678.546 602.033C971.61 1261.53 1156.37 874.651 1300.53 546.167C1444.69 217.683 1850.6 822.439 1900.69 1474.76" stroke="white" stroke-opacity="0.15" stroke-width="2.99358" stroke-miterlimit="10"/>
<path d="M-177.377 -67.4245C-177.377 -67.4245 404.907 -49.2233 662.767 621.828C920.628 1292.88 1093.95 920.752 1239.21 564.899C1384.42 209.047 1819.1 884.482 1856.75 1573.34" stroke="white" stroke-opacity="0.15" stroke-width="2.99358" stroke-miterlimit="10"/>
<path d="M-174.929 -118.242C-174.929 -118.242 424.382 -40.9867 647.039 641.623C869.696 1324.23 1031.63 966.852 1177.89 583.632C1324.15 200.345 1787.64 946.525 1812.8 1671.91" stroke="white" stroke-opacity="0.15" stroke-width="2.99358" stroke-miterlimit="10"/>
</g>
</svg>
