<svg width="1920" height="989" viewBox="0 0 1920 989" fill="none" xmlns="http://www.w3.org/2000/svg">
<path d="M-62.3229 452.594C-62.3229 452.594 373.257 5.03784 900.177 575.369C1427.1 1145.7 1685.51 662.654 1819.13 527.699C1952.75 392.745 2152.25 501.18 2286.41 892.227" stroke="#7B53E0" stroke-width="2.99358" stroke-miterlimit="10"/>
<path d="M-59.9354 402.501C-59.9354 402.501 392.274 13.1571 884.814 594.881C1377.35 1176.61 1624.6 708.096 1759.24 546.164C1893.89 384.232 2121.48 562.338 2243.54 989.398" stroke="#7B53E0" stroke-width="2.99358" stroke-miterlimit="10"/>
<path d="M-57.5433 352.474C-57.5433 352.474 411.295 21.2759 869.454 614.394C1327.61 1207.51 1563.69 753.539 1699.41 564.629C1835.08 375.719 2090.81 623.496 2200.68 1086.57" stroke="#7B53E0" stroke-width="2.99358" stroke-miterlimit="10"/>
<path d="M-55.2037 302.383C-55.2037 302.383 430.264 29.3972 854.043 633.909C1277.82 1238.42 1502.78 798.984 1639.47 583.031C1776.16 367.143 2060.03 684.59 2157.71 1183.61" stroke="#7B53E0" stroke-width="2.99358" stroke-miterlimit="10"/>
<path d="M-52.8127 252.291C-52.8127 252.291 449.285 37.5162 838.683 653.421C1228.08 1269.33 1441.87 844.426 1579.64 601.496C1717.35 358.63 2029.36 745.748 2114.85 1280.79" stroke="#7B53E0" stroke-width="2.99358" stroke-miterlimit="10"/>
<path d="M-50.4228 202.268C-50.4228 202.268 468.304 45.6394 823.322 672.938C1178.29 1300.24 1381.01 889.873 1519.75 619.965C1658.49 350.121 1998.64 806.91 2071.93 1377.96" stroke="#7B53E0" stroke-width="2.99358" stroke-miterlimit="10"/>
<path d="M-48.0852 152.175C-48.0852 152.175 487.319 53.7583 807.909 692.45C1128.5 1331.14 1320.05 935.25 1459.86 638.429C1599.63 341.608 1967.91 868.068 2029.02 1475.13" stroke="#7B53E0" stroke-width="2.99358" stroke-miterlimit="10"/>
<path d="M-45.6955 102.081C-45.6955 102.081 506.339 61.8764 792.548 711.962C1078.76 1362.05 1259.19 980.692 1399.98 656.893C1540.77 333.095 1937.19 929.225 1986.1 1572.24" stroke="#7B53E0" stroke-width="2.99358" stroke-miterlimit="10"/>
<path d="M-43.3505 52.054C-43.3505 52.054 525.313 69.9956 777.142 731.475C1028.97 1392.95 1198.24 1026.13 1340.1 675.358C1481.91 324.582 1906.42 990.383 1943.19 1669.41" stroke="#7B53E0" stroke-width="2.99358" stroke-miterlimit="10"/>
<path d="M-40.9646 1.96132C-40.9646 1.96132 544.328 78.1145 761.777 750.987C979.225 1423.86 1137.37 1071.58 1280.21 693.823C1423.05 316.003 1875.7 1051.54 1900.27 1766.58" stroke="#7B53E0" stroke-width="2.99358" stroke-miterlimit="10"/>
</svg>
