<svg width="1920" height="973" viewBox="0 0 1920 973" fill="none" xmlns="http://www.w3.org/2000/svg">
<g opacity="0.1">
<mask id="mask0_817_191516" style="mask-type:luminance" maskUnits="userSpaceOnUse" x="-190" y="0" width="2111" height="1250">
<path d="M-189.467 1249.32L1920.01 1249.32L1920.01 0.000854492L-189.466 0.000670076L-189.467 1249.32Z" fill="white"/>
</mask>
<g mask="url(#mask0_817_191516)">
<path d="M-62.3151 436.596C-62.3151 436.596 373.265 -10.9602 900.184 559.371C1427.1 1129.7 1685.52 646.656 1819.14 511.701C1952.76 376.747 2152.26 485.182 2286.41 876.229" stroke="white" stroke-width="2.99358" stroke-miterlimit="10"/>
<path d="M-59.9276 386.503C-59.9276 386.503 392.282 -2.84098 884.821 578.883C1377.36 1160.61 1624.61 692.098 1759.25 530.166C1893.89 368.234 2121.48 546.34 2243.55 973.4" stroke="white" stroke-width="2.99358" stroke-miterlimit="10"/>
<path d="M-57.5393 336.476C-57.5393 336.476 411.299 5.27787 869.458 598.396C1327.62 1191.51 1563.69 737.541 1699.41 548.631C1835.08 359.721 2090.81 607.498 2200.68 1070.57" stroke="white" stroke-width="2.99358" stroke-miterlimit="10"/>
<path d="M-55.1959 286.383C-55.1959 286.383 430.272 13.3972 854.051 617.909C1277.83 1222.42 1502.79 782.984 1639.48 567.031C1776.17 351.143 2060.04 668.59 2157.72 1167.61" stroke="white" stroke-width="2.99358" stroke-miterlimit="10"/>
<path d="M-52.8088 236.291C-52.8088 236.291 449.289 21.5162 838.687 637.421C1228.09 1253.33 1441.88 828.426 1579.64 585.496C1717.36 342.63 2029.36 729.748 2114.85 1264.79" stroke="white" stroke-width="2.99358" stroke-miterlimit="10"/>
<path d="M-50.4189 186.266C-50.4189 186.266 468.308 29.6374 823.326 656.936C1178.3 1284.23 1381.02 873.871 1519.76 603.963C1658.5 334.12 1998.64 790.908 2071.94 1361.96" stroke="white" stroke-width="2.99358" stroke-miterlimit="10"/>
<path d="M-48.0774 136.173C-48.0774 136.173 487.327 37.7563 807.917 676.448C1128.51 1315.14 1320.06 919.248 1459.87 622.427C1599.64 325.607 1967.92 852.066 2029.02 1459.13" stroke="white" stroke-width="2.99358" stroke-miterlimit="10"/>
<path d="M-45.6877 86.0811C-45.6877 86.0811 506.346 45.8764 792.555 695.962C1078.76 1346.05 1259.2 964.692 1399.99 640.893C1540.78 317.095 1937.2 913.225 1986.11 1556.24" stroke="white" stroke-width="2.99358" stroke-miterlimit="10"/>
<path d="M-43.3466 36.054C-43.3466 36.054 525.317 53.9956 777.145 715.475C1028.97 1376.95 1198.24 1010.13 1340.1 659.358C1481.92 308.582 1906.43 974.383 1943.2 1653.41" stroke="white" stroke-width="2.99358" stroke-miterlimit="10"/>
<path d="M-40.9568 -14.0387C-40.9568 -14.0387 544.336 62.1145 761.784 734.987C979.233 1407.86 1137.38 1055.58 1280.22 677.823C1423.05 300.003 1875.7 1035.54 1900.28 1750.58" stroke="white" stroke-width="2.99358" stroke-miterlimit="10"/>
</g>
</g>
</svg>
