<svg width="1920" height="989" viewBox="0 0 1920 989" fill="none" xmlns="http://www.w3.org/2000/svg">
<path d="M-62.3229 452.596C-62.3229 452.596 373.257 5.04053 900.177 575.371C1427.1 1145.7 1685.51 662.656 1819.13 527.702C1952.75 392.748 2152.25 501.183 2286.41 892.229" stroke="#8E1617" stroke-width="2.99358" stroke-miterlimit="10"/>
<path d="M-59.9354 402.504C-59.9354 402.504 392.274 13.1598 884.814 594.884C1377.35 1176.61 1624.6 708.099 1759.24 546.167C1893.89 384.235 2121.48 562.341 2243.54 989.401" stroke="#8E1617" stroke-width="2.99358" stroke-miterlimit="10"/>
<path d="M-57.5472 352.477C-57.5472 352.477 411.292 21.2788 869.45 614.397C1327.61 1207.51 1563.69 753.542 1699.4 564.632C1835.07 375.722 2090.8 623.499 2200.67 1086.57" stroke="#8E1617" stroke-width="2.99358" stroke-miterlimit="10"/>
<path d="M-55.2037 302.385C-55.2037 302.385 430.264 29.3989 854.043 633.91C1277.82 1238.42 1502.78 798.985 1639.47 583.032C1776.16 367.145 2060.03 684.592 2157.71 1183.61" stroke="#8E1617" stroke-width="2.99358" stroke-miterlimit="10"/>
<path d="M-52.8166 252.292C-52.8166 252.292 449.281 37.5179 838.679 653.423C1228.08 1269.33 1441.87 844.428 1579.63 601.497C1717.35 358.632 2029.36 745.75 2114.84 1280.79" stroke="#8E1617" stroke-width="2.99358" stroke-miterlimit="10"/>
<path d="M-50.4267 202.267C-50.4267 202.267 468.3 45.6391 823.319 672.938C1178.29 1300.24 1381.01 889.873 1519.75 619.964C1658.49 350.121 1998.63 806.91 2071.93 1377.96" stroke="#8E1617" stroke-width="2.99358" stroke-miterlimit="10"/>
<path d="M-48.0852 152.174C-48.0852 152.174 487.319 53.7581 807.909 692.45C1128.5 1331.14 1320.05 935.25 1459.86 638.429C1599.63 341.608 1967.91 868.068 2029.02 1475.13" stroke="#8E1617" stroke-width="2.99358" stroke-miterlimit="10"/>
<path d="M-45.6955 102.082C-45.6955 102.082 506.339 61.8776 792.548 711.963C1078.76 1362.05 1259.19 980.693 1399.98 656.894C1540.77 333.096 1937.19 929.226 1986.1 1572.24" stroke="#8E1617" stroke-width="2.99358" stroke-miterlimit="10"/>
<path d="M-43.3544 52.0555C-43.3544 52.0555 525.309 69.997 777.138 731.476C1028.97 1392.95 1198.23 1026.14 1340.1 675.36C1481.91 324.583 1906.42 990.384 1943.19 1669.41" stroke="#8E1617" stroke-width="2.99358" stroke-miterlimit="10"/>
<path d="M-40.9646 1.96278C-40.9646 1.96278 544.328 78.116 761.777 750.989C979.225 1423.86 1137.37 1071.58 1280.21 693.825C1423.05 316.005 1875.7 1051.54 1900.27 1766.58" stroke="#8E1617" stroke-width="2.99358" stroke-miterlimit="10"/>
</svg>
