<svg width="1920" height="989" viewBox="0 0 1920 989" fill="none" xmlns="http://www.w3.org/2000/svg">
<g opacity="0.1">
<path d="M-62.319 452.598C-62.319 452.598 373.261 5.04175 900.181 575.373C1427.1 1145.7 1685.51 662.658 1819.13 527.703C1952.75 392.749 2152.25 501.184 2286.41 892.23" stroke="white" stroke-width="2.99358" stroke-miterlimit="10"/>
<path d="M-59.9315 402.505C-59.9315 402.505 392.278 13.161 884.817 594.885C1377.36 1176.61 1624.6 708.1 1759.25 546.168C1893.89 384.236 2121.48 562.342 2243.54 989.402" stroke="white" stroke-width="2.99358" stroke-miterlimit="10"/>
<path d="M-57.5392 352.478C-57.5392 352.478 411.299 21.2799 869.458 614.398C1327.62 1207.52 1563.69 753.543 1699.41 564.633C1835.08 375.723 2090.81 623.5 2200.68 1086.57" stroke="white" stroke-width="2.99358" stroke-miterlimit="10"/>
<path d="M-55.1998 302.387C-55.1998 302.387 430.268 29.4011 854.047 633.913C1277.83 1238.42 1502.78 798.988 1639.48 583.035C1776.17 367.147 2060.04 684.594 2157.71 1183.62" stroke="white" stroke-width="2.99358" stroke-miterlimit="10"/>
<path d="M-52.8088 252.295C-52.8088 252.295 449.289 37.5201 838.687 653.425C1228.09 1269.33 1441.88 844.43 1579.64 601.499C1717.36 358.634 2029.36 745.752 2114.85 1280.79" stroke="white" stroke-width="2.99358" stroke-miterlimit="10"/>
<path d="M-50.4189 202.271C-50.4189 202.271 468.308 45.6433 823.326 672.942C1178.3 1300.24 1381.02 889.877 1519.76 619.968C1658.5 350.125 1998.64 806.914 2071.94 1377.96" stroke="white" stroke-width="2.99358" stroke-miterlimit="10"/>
<path d="M-48.0813 152.179C-48.0813 152.179 487.323 53.7622 807.913 692.454C1128.5 1331.15 1320.06 935.254 1459.87 638.433C1599.63 341.612 1967.92 868.072 2029.02 1475.14" stroke="white" stroke-width="2.99358" stroke-miterlimit="10"/>
<path d="M-45.6916 102.085C-45.6916 102.085 506.343 61.8803 792.552 711.966C1078.76 1362.05 1259.2 980.696 1399.98 656.897C1540.77 333.099 1937.19 929.229 1986.11 1572.24" stroke="white" stroke-width="2.99358" stroke-miterlimit="10"/>
<path d="M-43.3466 52.0579C-43.3466 52.0579 525.317 69.9995 777.145 731.478C1028.97 1392.96 1198.24 1026.14 1340.1 675.362C1481.92 324.586 1906.43 990.386 1943.2 1669.41" stroke="white" stroke-width="2.99358" stroke-miterlimit="10"/>
<path d="M-40.9607 1.96522C-40.9607 1.96522 544.332 78.1184 761.78 750.991C979.229 1423.86 1137.38 1071.58 1280.21 693.827C1423.05 316.007 1875.7 1051.54 1900.28 1766.59" stroke="white" stroke-width="2.99358" stroke-miterlimit="10"/>
</g>
</svg>
